<?xml version="1.0" standalone="no"?>
<!DOCTYPE svg PUBLIC "-//W3C//DTD SVG 20010904//EN"
 "http://www.w3.org/TR/2001/REC-SVG-20010904/DTD/svg10.dtd">
<svg version="1.0" xmlns="http://www.w3.org/2000/svg"
 width="960.000000pt" height="720.000000pt" viewBox="0 0 960.000000 720.000000"
 preserveAspectRatio="xMidYMid meet">
<metadata>
Created by potrace 1.15, written by Peter Selinger 2001-2017
</metadata>
<g transform="translate(0.000000,720.000000) scale(0.100000,-0.100000)"
fill="#000000" stroke="none">
<path d="M2730 7117 c-3 -3 -31 -7 -63 -8 -31 -1 -57 -6 -57 -11 0 -4 -22 -8
-50 -8 -27 0 -50 -4 -50 -10 0 -5 -20 -10 -44 -10 -25 0 -48 -4 -51 -10 -3 -5
-22 -10 -41 -10 -19 0 -34 -4 -34 -10 0 -5 -18 -10 -40 -10 -22 0 -40 -4 -40
-10 0 -5 -11 -10 -24 -10 -14 0 -28 -4 -31 -10 -3 -5 -17 -10 -31 -10 -13 0
-24 -4 -24 -10 0 -5 -13 -10 -30 -10 -16 0 -30 -4 -30 -10 0 -5 -13 -10 -30
-10 -16 0 -30 -4 -30 -9 0 -5 -12 -11 -27 -14 -44 -9 -103 -31 -103 -39 0 -5
-13 -8 -30 -8 -16 0 -30 -4 -30 -10 0 -5 -9 -10 -20 -10 -11 0 -20 -4 -20 -10
0 -5 -7 -10 -15 -10 -8 0 -15 -4 -15 -10 0 -5 -9 -10 -20 -10 -11 0 -20 -4
-20 -10 0 -5 -9 -10 -20 -10 -11 0 -20 -4 -20 -10 0 -5 -7 -10 -16 -10 -8 0
-22 -7 -31 -15 -8 -8 -19 -13 -24 -10 -5 4 -9 2 -9 -4 0 -5 -25 -22 -55 -36
-30 -15 -55 -31 -55 -36 0 -5 -9 -9 -20 -9 -11 0 -20 -4 -20 -10 0 -5 -8 -10
-18 -10 -10 0 -24 -9 -32 -20 -8 -11 -18 -20 -23 -20 -5 0 -22 -13 -37 -30
-15 -16 -35 -30 -44 -30 -8 0 -26 -11 -40 -25 -14 -14 -29 -25 -35 -25 -5 0
-21 -13 -34 -30 -14 -16 -30 -30 -36 -30 -9 0 -63 -46 -127 -107 -13 -13 -25
-23 -28 -23 -2 0 -33 -30 -68 -66 -160 -167 -208 -219 -208 -227 0 -5 -15 -23
-33 -40 -19 -18 -53 -61 -77 -97 -24 -36 -50 -71 -57 -78 -7 -7 -13 -17 -13
-21 0 -5 -11 -20 -24 -34 -13 -14 -30 -39 -37 -56 -8 -17 -17 -31 -21 -31 -5
0 -8 -5 -8 -10 0 -6 -11 -28 -24 -49 -42 -67 -157 -291 -149 -291 5 0 3 -4 -3
-8 -6 -4 -23 -41 -38 -82 -15 -41 -31 -83 -37 -92 -5 -10 -9 -27 -9 -38 0 -11
-4 -20 -10 -20 -5 0 -10 -13 -10 -30 0 -16 -4 -30 -10 -30 -5 0 -10 -13 -10
-30 0 -16 -4 -30 -9 -30 -5 0 -11 -12 -14 -27 -14 -69 -19 -89 -27 -108 -10
-24 -14 -40 -52 -235 -18 -92 -18 -998 0 -1090 7 -36 17 -87 23 -115 5 -27 13
-67 16 -87 3 -21 9 -38 14 -38 5 0 9 -10 9 -22 0 -23 16 -81 31 -110 5 -10 9
-27 9 -38 0 -11 5 -20 10 -20 6 0 10 -13 10 -30 0 -16 5 -30 10 -30 6 0 10
-11 10 -24 0 -14 5 -28 10 -31 6 -3 10 -15 10 -25 0 -11 11 -43 24 -72 13 -29
34 -78 47 -108 13 -30 27 -56 32 -58 4 -2 7 -12 7 -23 0 -10 5 -19 10 -19 6 0
10 -9 10 -20 0 -11 5 -20 10 -20 6 0 10 -4 10 -9 0 -16 125 -231 165 -283 57
-74 66 -87 65 -94 -1 -4 2 -10 7 -13 5 -3 22 -24 39 -46 16 -22 39 -50 51 -63
13 -13 23 -27 23 -31 0 -5 29 -38 65 -75 36 -37 65 -71 65 -76 0 -6 6 -10 13
-10 7 0 19 -10 27 -22 8 -12 32 -38 54 -57 21 -20 62 -58 90 -86 85 -82 264
-225 277 -222 4 1 15 -7 25 -18 27 -29 77 -60 92 -57 6 2 12 -3 12 -11 0 -13
33 -35 110 -75 19 -9 53 -29 75 -43 22 -13 63 -36 90 -49 28 -14 51 -28 53
-32 2 -5 10 -8 17 -8 7 0 30 -8 52 -19 77 -37 114 -51 139 -51 14 0 22 -4 19
-10 -3 -5 3 -10 14 -10 11 0 23 -4 26 -10 3 -5 17 -10 31 -10 13 0 24 -4 24
-10 0 -5 14 -10 30 -10 17 0 30 -4 30 -10 0 -5 11 -10 24 -10 14 0 28 -4 31
-10 3 -5 22 -10 41 -10 19 0 34 -4 34 -10 0 -5 13 -10 29 -10 17 0 32 -4 35
-9 3 -5 20 -11 38 -14 37 -7 105 -20 188 -38 35 -7 221 -13 515 -16 436 -4
571 0 561 15 -2 4 17 8 42 9 66 2 131 14 138 24 3 5 20 9 39 9 19 0 37 5 40
10 3 6 21 10 40 10 19 0 37 5 40 10 3 6 17 10 30 10 13 0 27 5 30 10 3 6 19
10 36 10 16 0 29 5 29 10 0 6 11 10 25 10 14 0 25 5 25 10 0 6 10 10 23 10 13
0 27 4 33 8 5 5 28 15 52 22 23 7 42 16 42 20 0 4 10 8 23 8 12 0 54 15 92 34
113 57 270 140 275 147 3 3 22 14 43 23 21 10 40 25 43 33 4 8 15 15 25 15 10
0 24 9 31 20 7 11 21 20 31 20 11 0 21 9 24 20 3 11 9 17 14 14 5 -3 26 8 46
25 21 17 41 31 45 31 8 0 42 28 114 96 24 22 46 39 48 37 6 -7 306 292 306
305 0 7 27 40 60 73 45 45 60 67 59 87 0 15 -2 23 -5 17 -2 -6 -104 -9 -283
-7 l-278 3 -34 -31 c-19 -17 -65 -60 -104 -96 -104 -95 -139 -124 -151 -124
-7 0 -22 -13 -35 -30 -13 -16 -31 -30 -39 -30 -9 0 -22 -9 -30 -20 -8 -11 -21
-20 -29 -20 -7 0 -21 -8 -30 -18 -9 -9 -29 -24 -46 -32 -16 -8 -36 -21 -43
-28 -7 -6 -22 -12 -33 -12 -10 0 -19 -4 -19 -10 0 -5 -9 -10 -20 -10 -11 0
-20 -4 -20 -8 0 -11 -77 -52 -97 -52 -8 0 -11 -4 -8 -10 4 -6 -5 -10 -19 -10
-14 0 -26 -4 -26 -10 0 -5 -9 -10 -20 -10 -11 0 -20 -4 -20 -10 0 -5 -9 -10
-20 -10 -11 0 -20 -4 -20 -10 0 -5 -11 -10 -25 -10 -14 0 -25 -4 -25 -9 0 -6
-20 -13 -45 -17 -25 -3 -48 -10 -51 -15 -3 -5 -18 -9 -35 -9 -16 0 -29 -4 -29
-10 0 -5 -11 -10 -25 -10 -14 0 -25 -4 -25 -10 0 -5 -18 -10 -41 -10 -24 0
-38 -4 -34 -10 4 -6 -8 -10 -29 -10 -19 0 -38 -4 -41 -10 -3 -5 -24 -10 -46
-10 -21 0 -39 -4 -39 -10 0 -5 -20 -10 -45 -10 -25 0 -45 -4 -45 -10 0 -6 -30
-10 -70 -10 -40 0 -70 -4 -70 -10 0 -6 -48 -10 -125 -10 -82 0 -133 -4 -146
-12 -17 -10 -23 -10 -26 0 -3 6 -9 12 -14 12 -6 0 -7 -4 -4 -10 4 -6 -7 -10
-24 -10 -17 0 -31 5 -31 10 0 6 -48 10 -125 10 -77 0 -125 4 -125 10 0 6 -28
10 -65 10 -37 0 -65 4 -65 10 0 6 -24 10 -54 10 -30 0 -58 5 -61 10 -3 6 -22
10 -41 10 -19 0 -34 5 -34 10 0 6 -18 10 -40 10 -22 0 -40 5 -40 10 0 6 -11
10 -24 10 -14 0 -28 5 -31 10 -3 6 -22 10 -41 10 -19 0 -34 5 -34 10 0 6 -13
10 -29 10 -16 0 -31 5 -33 11 -2 5 -22 13 -46 16 -23 3 -42 10 -42 14 0 5 -9
9 -20 9 -11 0 -20 5 -20 10 0 6 -13 10 -30 10 -16 0 -30 5 -30 10 0 6 -7 10
-15 10 -8 0 -15 5 -15 10 0 6 -9 10 -20 10 -11 0 -20 5 -20 10 0 6 -9 10 -19
10 -11 0 -21 3 -23 8 -4 10 -87 52 -104 52 -8 0 -14 4 -14 10 0 5 -11 12 -25
16 -14 3 -25 10 -25 15 0 5 -8 9 -18 9 -10 0 -24 9 -32 20 -8 11 -21 20 -30
20 -9 0 -22 9 -30 20 -8 11 -19 20 -26 20 -6 0 -19 9 -29 20 -10 11 -22 20
-27 20 -5 0 -20 11 -34 25 -14 14 -34 25 -44 25 -11 0 -20 6 -20 13 0 6 -14
23 -32 37 -17 14 -37 31 -44 38 -7 6 -15 12 -18 12 -8 0 -210 204 -248 252
-18 22 -52 60 -74 83 -23 23 -45 51 -48 61 -3 11 -16 31 -28 46 -44 51 -53 64
-67 91 -8 15 -18 27 -23 27 -4 0 -8 7 -8 15 0 8 -9 20 -20 27 -11 7 -20 21
-20 30 0 10 -4 18 -10 18 -5 0 -10 8 -10 19 0 10 -7 24 -15 31 -8 7 -15 21
-15 31 0 11 -3 19 -8 19 -4 0 -13 15 -21 32 -8 18 -22 45 -33 60 -10 14 -18
33 -18 42 0 9 -4 16 -10 16 -5 0 -10 11 -10 25 0 14 -4 25 -10 25 -5 0 -10 6
-10 13 0 18 -24 67 -32 67 -5 0 -8 10 -8 23 0 22 -25 107 -41 139 -5 10 -9 27
-9 37 0 11 -4 23 -10 26 -5 3 -10 22 -10 41 0 21 -4 33 -10 29 -6 -4 -10 8
-10 29 0 20 -4 36 -10 36 -5 0 -10 18 -10 40 0 22 -4 40 -10 40 -5 0 -10 25
-10 55 0 30 -4 55 -10 55 -6 0 -10 28 -10 64 0 36 -4 68 -10 71 -14 8 -14 595
0 595 6 0 10 30 10 70 0 40 4 70 10 70 6 0 10 20 10 44 0 25 5 48 10 51 6 3
10 26 10 51 0 24 5 44 10 44 6 0 10 16 10 35 0 19 5 35 10 35 6 0 10 11 10 24
0 13 8 41 17 62 9 22 18 48 20 59 2 11 10 37 18 58 8 20 15 49 15 63 0 14 4
23 10 19 6 -3 10 3 10 14 0 11 5 23 10 26 6 3 10 17 10 31 0 13 5 24 10 24 6
0 10 9 10 20 0 11 3 20 8 20 4 0 18 25 32 55 14 30 28 55 33 55 4 0 7 7 7 15
0 17 18 52 37 73 7 7 13 22 13 33 0 11 5 17 10 14 6 -3 10 2 10 12 0 10 9 25
20 33 11 8 20 21 20 30 0 9 9 22 20 30 11 8 20 21 20 30 0 9 9 22 20 30 11 8
20 18 20 23 0 4 11 20 25 35 14 15 25 33 25 40 0 7 23 35 50 62 28 27 50 51
50 55 0 13 252 265 265 265 4 0 28 23 55 50 27 28 55 50 62 50 7 0 25 11 40
25 15 14 31 25 35 25 5 0 15 9 23 20 8 11 21 20 30 20 9 0 22 9 30 20 8 11 21
20 30 20 9 0 22 9 30 20 8 11 20 20 28 20 7 0 22 9 34 20 12 10 25 17 30 14 4
-3 8 0 8 5 0 6 9 11 20 11 11 0 20 5 20 10 0 6 9 10 20 10 11 0 20 5 20 10 0
6 9 10 20 10 11 0 20 5 20 10 0 6 9 10 20 10 11 0 20 3 20 8 0 9 49 32 68 32
7 0 10 5 7 10 -4 6 7 10 25 10 18 0 29 4 25 10 -4 6 5 10 19 10 14 0 26 5 26
10 0 6 10 10 23 10 12 1 33 7 47 15 14 8 37 14 53 15 15 0 27 5 27 10 0 6 14
10 30 10 17 0 30 5 30 10 0 6 16 10 35 10 19 0 35 5 35 10 0 6 15 10 34 10 19
0 38 5 41 10 3 6 24 10 46 10 24 0 38 4 34 10 -4 6 13 10 44 10 28 0 51 5 51
10 0 6 28 10 65 10 37 0 65 4 65 10 0 6 113 10 320 10 207 0 320 -4 320 -10 0
-6 30 -10 71 -10 44 0 68 -4 64 -10 -4 -6 13 -10 44 -10 28 0 51 -4 51 -8 0
-4 19 -9 43 -11 23 -1 46 -6 52 -12 5 -5 24 -9 43 -9 19 0 31 -4 27 -10 -4 -6
8 -10 29 -10 20 0 36 -4 36 -10 0 -5 9 -10 20 -10 11 0 28 -4 38 -9 9 -5 44
-17 77 -26 33 -9 68 -20 77 -26 10 -5 25 -9 33 -9 8 0 15 -4 15 -10 0 -5 9
-10 20 -10 11 0 20 -4 20 -10 0 -5 9 -10 20 -10 11 0 20 -4 20 -10 0 -5 14
-10 30 -10 17 0 30 -4 30 -10 0 -5 7 -10 16 -10 8 0 12 -4 9 -10 -4 -6 5 -10
19 -10 14 0 26 -4 26 -9 0 -10 103 -61 123 -61 7 0 18 -9 25 -20 7 -11 18 -20
25 -20 7 0 19 -9 27 -20 8 -11 21 -20 30 -20 9 0 22 -9 30 -20 8 -11 21 -20
30 -20 9 0 22 -9 30 -20 8 -11 18 -20 23 -20 8 0 24 -12 62 -47 13 -13 29 -23
34 -23 6 0 44 -34 85 -75 41 -41 80 -75 87 -75 7 0 9 -3 6 -7 -4 -3 1 -12 11
-19 14 -10 87 -13 293 -14 151 -1 280 -1 287 -1 27 2 9 41 -48 101 -33 35 -60
67 -60 72 0 13 -282 292 -299 296 -7 1 -30 21 -51 42 -21 22 -44 40 -50 40 -6
0 -8 5 -5 10 3 6 1 10 -5 10 -6 0 -23 11 -37 25 -15 13 -40 29 -55 36 -15 6
-28 15 -28 20 0 5 -9 9 -19 9 -11 0 -23 9 -26 20 -3 11 -13 20 -21 20 -8 0
-14 5 -14 10 0 6 -6 10 -14 10 -8 0 -16 4 -18 9 -1 5 -10 11 -18 13 -8 2 -22
11 -31 21 -9 9 -22 17 -28 17 -7 0 -22 9 -34 21 -12 11 -34 23 -49 26 -16 3
-28 9 -28 14 0 5 -9 9 -20 9 -11 0 -20 5 -20 10 0 6 -9 10 -20 10 -11 0 -20 5
-20 10 0 6 -9 10 -20 10 -11 0 -20 5 -20 10 0 6 -9 10 -20 10 -11 0 -20 5 -20
10 0 6 -7 10 -15 10 -8 0 -15 5 -15 10 0 6 -9 10 -20 10 -11 0 -20 4 -20 8 0
4 -21 14 -47 21 -27 8 -57 20 -68 28 -11 7 -34 13 -52 13 -18 0 -33 5 -33 10
0 6 -7 10 -15 10 -8 0 -15 5 -15 10 0 6 -13 10 -30 10 -16 0 -30 5 -30 10 0 6
-13 10 -30 10 -16 0 -30 5 -30 10 0 6 -16 10 -35 10 -19 0 -35 5 -35 10 0 6
-16 10 -35 10 -19 0 -35 5 -35 10 0 6 -18 10 -39 10 -22 0 -43 5 -46 10 -3 6
-24 10 -46 10 -21 0 -39 5 -39 10 0 6 -24 10 -54 10 -35 0 -56 5 -58 13 -4 9
-106 13 -454 15 -247 2 -451 1 -454 -1z"/>
<path d="M1900 5535 c0 -8 -4 -15 -10 -15 -6 0 -10 -26 -10 -58 0 -32 -4 -62
-10 -68 -5 -5 -10 -35 -11 -66 -1 -32 -6 -55 -11 -52 -4 3 -8 -22 -8 -55 0
-34 -4 -61 -10 -61 -6 0 -10 -27 -10 -60 0 -33 -4 -60 -9 -60 -8 0 -21 -96
-24 -192 -1 -27 -5 -48 -9 -48 -5 0 -8 -27 -8 -60 0 -33 -4 -60 -10 -60 -5 0
-10 -25 -10 -55 0 -30 -4 -55 -10 -55 -6 0 -10 -26 -10 -59 0 -33 -4 -61 -10
-63 -5 -1 -10 -31 -11 -65 -1 -35 -6 -63 -10 -63 -5 0 -9 -20 -9 -44 0 -25 -4
-48 -10 -51 -5 -3 -10 -35 -10 -71 0 -36 -4 -64 -10 -64 -5 0 -10 -22 -10 -49
0 -28 -4 -53 -10 -56 -5 -3 -10 -33 -10 -65 0 -32 -4 -60 -9 -62 -5 -1 -11
-28 -12 -58 -1 -30 -7 -66 -13 -79 -19 -44 11 -53 166 -49 75 2 140 6 144 11
4 4 9 25 10 46 1 21 7 62 14 90 7 28 9 58 6 67 -3 8 -1 22 4 32 5 9 12 34 15
55 l6 37 145 0 c172 0 174 -1 174 -89 0 -34 4 -61 8 -61 5 0 10 -28 11 -62 1
-35 6 -67 12 -72 5 -6 9 -18 9 -27 0 -9 7 -20 16 -23 20 -8 277 -8 297 0 12 4
14 19 10 77 -3 40 -9 74 -14 75 -5 2 -9 33 -9 68 0 36 -4 64 -10 64 -5 0 -10
25 -10 55 0 30 -4 55 -10 55 -6 0 -10 26 -10 59 0 33 -5 63 -10 66 -6 4 -8 10
-6 14 3 4 1 32 -4 62 -5 30 -12 74 -15 99 -4 43 -13 96 -36 235 -5 33 -12 85
-15 115 -3 30 -10 59 -15 65 -5 5 -9 33 -9 61 0 29 -4 56 -10 59 -5 3 -10 30
-10 59 0 28 -4 56 -9 62 -5 5 -12 34 -15 64 -14 136 -18 166 -27 175 -5 5 -9
33 -9 62 0 29 -4 53 -10 53 -6 0 -10 26 -10 59 0 33 -4 63 -10 66 -5 3 -10 15
-10 26 0 18 -9 19 -225 19 -193 0 -225 -2 -225 -15z m230 -616 c0 -37 4 -58
10 -54 6 4 10 -20 10 -64 0 -39 4 -71 9 -71 5 0 12 -56 16 -125 4 -69 11 -125
16 -125 5 0 9 -31 9 -70 0 -40 4 -70 10 -70 6 0 10 -12 9 -27 0 -16 -3 -22 -6
-15 -3 8 -34 12 -107 12 l-101 0 7 63 c9 73 23 168 38 252 13 74 28 179 39
266 4 36 11 71 15 77 16 27 26 9 26 -49z"/>
<path d="M2740 4615 l0 -935 26 -6 c45 -11 594 2 607 15 6 6 18 11 27 11 22 0
75 26 90 45 7 8 17 15 22 15 14 0 71 62 88 95 8 17 17 32 20 35 11 11 30 78
30 108 0 18 5 32 10 32 7 0 10 200 10 580 0 380 -3 580 -10 580 -5 0 -10 18
-10 39 0 22 -4 43 -10 46 -5 3 -10 16 -10 29 0 13 -9 31 -20 41 -11 10 -20 22
-20 26 0 12 -90 102 -122 122 -15 9 -34 17 -43 17 -8 0 -15 5 -15 10 0 6 -15
10 -34 10 -19 0 -37 4 -41 9 -3 6 -127 10 -300 11 l-295 1 0 -936z m495 615
c3 -5 15 -10 26 -10 22 0 49 -22 49 -39 0 -6 5 -11 10 -11 7 0 10 -194 10
-561 0 -371 -3 -558 -10 -554 -5 3 -10 0 -10 -8 0 -7 -11 -23 -25 -35 -22 -19
-37 -22 -115 -22 l-90 0 0 625 0 625 74 0 c41 0 78 -4 81 -10z"/>
<path d="M3802 4613 l3 -938 392 -3 c240 -1 401 2 417 8 l26 10 0 140 c0 107
-3 139 -12 138 -7 -2 -12 3 -11 10 2 9 -50 12 -237 12 l-240 0 0 235 0 235
190 0 190 0 0 159 c0 156 0 159 -22 165 -13 3 -98 6 -190 6 l-168 0 0 225 0
225 245 0 245 0 5 23 c3 12 4 81 3 152 l-3 130 -418 3 -417 2 2 -937z"/>
<path d="M4763 5543 c-10 -4 -13 -200 -13 -933 l0 -928 25 -6 c30 -8 1041 -7
1073 1 12 3 22 12 22 20 0 8 5 11 10 8 6 -4 10 20 10 64 0 41 4 71 10 71 6 0
10 28 10 65 0 37 4 65 10 65 6 0 10 9 10 20 0 19 7 20 155 20 l155 0 1 -37 c0
-21 2 -47 4 -58 9 -44 16 -103 22 -163 5 -56 8 -65 30 -73 30 -11 293 -12 312
0 9 6 11 23 7 65 -3 31 -9 81 -12 111 -3 30 -10 55 -15 55 -5 0 -9 25 -9 55 0
30 -4 55 -10 55 -6 0 -10 28 -10 65 0 37 -4 65 -10 65 -5 0 -10 25 -10 55 0
30 -4 55 -10 55 -6 0 -10 28 -10 65 0 37 -4 65 -10 65 -6 0 -10 27 -10 60 0
33 -4 60 -10 60 -6 0 -10 27 -10 60 0 33 -4 60 -8 60 -5 0 -14 51 -20 113 -20
191 -24 222 -32 232 -5 6 -10 36 -11 68 -1 31 -6 57 -11 57 -4 0 -8 24 -8 54
0 30 -4 58 -10 61 -5 3 -10 33 -10 66 0 33 -4 59 -10 59 -6 0 -10 27 -10 60 0
33 -4 60 -9 60 -6 0 -11 19 -13 43 l-3 42 -232 3 -233 2 0 -55 c0 -30 -4 -55
-10 -55 -5 0 -10 -24 -10 -54 0 -30 -4 -58 -10 -61 -5 -3 -10 -33 -10 -65 0
-32 -4 -60 -9 -62 -6 -1 -11 -27 -12 -56 -2 -29 -6 -55 -11 -58 -4 -3 -8 -25
-8 -49 0 -24 -4 -47 -10 -50 -5 -3 -10 -35 -10 -70 0 -35 -4 -67 -10 -70 -5
-3 -10 -26 -10 -50 0 -24 -4 -47 -10 -50 -5 -3 -10 -35 -10 -70 0 -35 -4 -67
-10 -70 -5 -3 -10 -28 -10 -55 0 -27 -4 -51 -8 -54 -8 -5 -23 -123 -26 -201 0
-16 -4 -32 -8 -35 -4 -3 -8 -31 -9 -63 -1 -31 -6 -57 -11 -57 -4 0 -8 -27 -8
-60 0 -33 -4 -60 -10 -60 -6 0 -10 -27 -10 -60 0 -33 -4 -60 -10 -60 -5 0 -10
-24 -10 -54 0 -30 -4 -58 -10 -61 -6 -4 -10 30 -10 93 0 82 -3 101 -16 106 -9
3 -114 6 -235 6 l-219 0 0 749 c0 412 -3 763 -6 780 l-6 31 -157 -1 c-86 0
-162 -3 -168 -6z m1328 -608 c5 4 9 -21 9 -59 0 -37 4 -66 10 -66 6 0 10 -26
10 -59 0 -33 5 -63 10 -66 6 -3 10 -33 10 -66 0 -33 4 -59 10 -59 6 0 10 -28
10 -65 0 -37 4 -65 10 -65 6 0 10 -27 10 -60 l0 -60 -105 0 -105 0 0 25 c0 14
5 25 10 25 6 0 10 27 10 61 0 37 4 58 10 54 6 -4 10 22 10 72 0 54 3 73 10 63
7 -11 10 5 10 52 0 37 4 69 9 72 4 3 12 43 15 88 15 169 17 187 23 140 2 -18
9 -30 14 -27z"/>
<path d="M6712 5542 c-10 -7 -12 -197 -12 -928 0 -855 1 -920 17 -931 21 -16
239 -18 277 -3 l26 10 0 532 c0 316 4 527 9 519 5 -8 7 -20 4 -27 -2 -6 0 -15
6 -19 6 -3 11 -19 11 -35 0 -16 5 -32 10 -35 6 -3 10 -17 10 -30 0 -13 5 -27
10 -30 6 -3 10 -19 10 -35 0 -16 5 -32 10 -35 6 -3 10 -21 10 -40 0 -19 5 -37
10 -40 6 -3 10 -24 10 -46 0 -21 5 -39 10 -39 6 0 10 -13 10 -30 0 -16 5 -30
10 -30 6 0 10 -16 10 -35 0 -19 5 -35 10 -35 6 0 10 -18 10 -41 0 -24 4 -38
10 -34 6 4 10 -8 10 -28 0 -31 9 -69 41 -173 5 -17 9 -40 9 -52 0 -12 5 -22
10 -22 6 0 10 -16 10 -35 0 -19 5 -35 10 -35 6 0 10 -15 10 -32 1 -66 16 -73
162 -76 72 -2 146 -1 165 3 l33 6 0 934 0 935 -150 0 -150 0 0 -456 c0 -301
-3 -453 -10 -449 -5 3 -10 22 -10 41 0 19 -4 34 -10 34 -5 0 -10 18 -10 40 0
22 -4 40 -10 40 -5 0 -10 15 -10 34 0 19 -4 38 -10 41 -5 3 -10 17 -10 31 0
13 -4 24 -10 24 -5 0 -10 18 -10 40 0 22 -4 40 -9 40 -5 0 -12 27 -16 60 -4
33 -11 63 -16 66 -5 3 -9 20 -9 39 0 19 -4 37 -10 40 -5 3 -10 16 -10 29 0 12
-3 26 -7 30 -4 4 -9 19 -11 34 -2 14 -7 31 -12 37 -5 6 -10 28 -12 48 -1 20
-6 37 -10 37 -4 0 -8 15 -8 34 0 19 -4 38 -10 41 -5 3 -10 15 -10 26 0 18 -9
19 -192 19 -106 0 -199 -4 -206 -8z"/>
<path d="M7740 5395 l0 -155 145 0 145 0 0 -775 c0 -755 0 -775 19 -785 21
-11 278 -14 305 -4 14 6 16 84 16 785 l0 779 150 0 150 0 0 155 0 155 -465 0
-465 0 0 -155z"/>
<path d="M8752 4613 l3 -938 403 -3 402 -2 0 160 0 160 -235 0 -235 0 0 235 0
235 190 0 190 0 0 159 c0 156 0 159 -22 165 -13 3 -98 6 -190 6 l-168 0 0 225
0 225 235 0 235 0 0 155 0 155 -405 0 -405 0 2 -937z"/>
<path d="M5066 3435 c-22 -8 -43 -21 -48 -29 -5 -9 -16 -16 -23 -16 -8 0 -15
-7 -15 -15 0 -8 -3 -15 -7 -15 -5 0 -14 -12 -20 -27 -16 -33 -18 -243 -3 -243
6 0 10 -7 10 -15 0 -8 5 -15 10 -15 6 0 10 -7 10 -15 0 -9 25 -41 55 -73 31
-31 59 -60 63 -65 4 -4 22 -20 40 -36 17 -16 32 -36 32 -45 0 -9 5 -16 10 -16
16 0 12 -89 -4 -106 -36 -35 -66 -3 -66 70 0 66 -12 76 -92 76 -76 0 -98 -18
-98 -81 0 -27 5 -49 10 -49 6 0 10 -18 10 -40 0 -22 5 -40 10 -40 6 0 10 -7
10 -16 0 -23 70 -84 96 -84 13 0 26 -4 29 -10 10 -16 138 -12 173 6 18 8 34
20 37 25 4 5 11 6 17 3 6 -4 8 -2 4 4 -3 6 4 21 16 34 13 13 29 39 36 59 14
43 16 199 2 199 -5 0 -10 7 -10 15 0 8 -4 15 -10 15 -5 0 -10 10 -10 23 0 12
-9 29 -20 37 -11 8 -20 18 -20 23 0 7 -30 38 -111 113 -39 36 -79 106 -79 137
1 30 49 65 61 46 5 -8 9 -10 9 -6 0 5 7 2 15 -7 9 -9 15 -33 15 -60 l0 -46 85
0 85 0 0 76 c0 47 -4 73 -10 69 -6 -4 -10 6 -10 22 0 32 -57 103 -83 103 -8 0
-17 5 -19 11 -6 17 -147 20 -192 4z"/>
<path d="M6590 3444 c-62 -11 -75 -17 -107 -50 -42 -44 -53 -71 -53 -135 0
-27 -4 -49 -10 -49 -6 0 -10 -82 -10 -225 0 -143 4 -225 10 -225 6 0 10 -18
10 -40 0 -40 -15 -54 -26 -25 -5 12 -26 15 -105 15 l-99 0 -2 363 -3 362 -70
3 c-38 2 -80 0 -92 -3 l-23 -5 0 -371 c0 -362 0 -369 -19 -359 -11 5 -63 10
-115 10 l-96 0 -2 363 -3 362 -83 0 -84 0 2 -427 c0 -273 -3 -428 -9 -428 -5
0 -9 -9 -8 -20 1 -19 11 -19 417 -17 l415 2 3 48 c2 26 7 47 13 47 5 0 8 -3 8
-7 -3 -20 3 -34 27 -58 14 -14 30 -23 35 -20 5 4 9 1 9 -4 0 -6 9 -11 20 -11
11 0 20 -4 20 -10 0 -6 33 -10 79 -10 44 0 83 5 86 10 3 6 15 10 26 10 10 0
19 5 19 10 0 6 7 10 15 10 17 0 55 56 55 83 0 9 5 17 10 17 6 0 10 47 10 120
l0 121 -82 -3 -83 -3 -3 -89 c-3 -89 -13 -116 -45 -116 -8 0 -22 11 -31 25
-14 21 -16 61 -16 275 0 259 1 267 41 282 30 11 48 -26 51 -104 l3 -73 83 -3
82 -3 0 116 c0 70 -4 115 -10 115 -5 0 -10 8 -10 18 -1 21 -25 50 -65 79 -31
21 -132 36 -185 27z"/>
<path d="M1596 3424 c-10 -25 -7 -112 4 -119 6 -3 10 -35 10 -71 0 -36 4 -64
10 -64 6 0 10 -29 10 -66 0 -41 4 -63 10 -59 6 4 10 -15 10 -49 0 -31 5 -56
10 -56 6 0 10 -32 10 -76 0 -47 4 -73 10 -69 6 4 10 -17 10 -55 0 -38 4 -59
10 -55 6 4 10 -17 10 -55 0 -87 5 -90 143 -90 l115 0 6 48 c3 26 10 76 16 112
6 36 14 93 16 128 3 34 9 62 14 62 5 0 11 26 14 58 5 55 14 119 35 247 29 173
33 227 20 236 -8 5 -44 9 -81 9 -54 0 -68 -3 -68 -15 0 -8 -4 -15 -10 -15 -6
0 -10 -30 -10 -70 0 -40 -4 -70 -10 -70 -6 0 -10 -28 -10 -65 0 -37 -4 -65
-10 -65 -6 0 -10 -28 -10 -65 0 -37 -4 -65 -10 -65 -6 0 -10 -27 -10 -61 0
-74 -21 -78 -24 -4 -2 47 -13 123 -36 260 -6 33 -14 95 -19 139 -5 48 -14 81
-22 87 -8 5 -46 9 -85 9 -56 0 -73 -3 -78 -16z"/>
<path d="M2123 3433 c-10 -4 -13 -103 -13 -449 l0 -444 210 0 210 0 0 66 c0
102 -2 104 -125 104 l-105 0 0 95 0 95 89 0 c103 0 101 -2 101 96 0 60 -2 65
-26 74 -14 6 -57 10 -95 10 l-69 0 0 90 0 89 113 3 112 3 3 65 c6 119 21 110
-201 109 -105 0 -198 -3 -204 -6z"/>
<path d="M2566 3424 c-8 -21 -8 -868 0 -888 4 -11 10 -13 18 -7 7 6 43 11 81
13 l70 3 5 200 c5 191 8 204 27 97 3 -18 9 -35 14 -38 5 -3 9 -21 9 -40 0 -19
5 -34 10 -34 6 0 10 -16 10 -35 0 -19 5 -35 10 -35 6 0 10 -13 10 -30 0 -16 5
-30 10 -30 6 0 10 -13 10 -30 l0 -30 80 0 c50 0 80 -4 80 -11 0 -6 7 -4 15 5
13 13 15 74 13 458 l-3 443 -80 0 -80 0 -3 -153 c-1 -96 -6 -151 -12 -147 -6
3 -10 19 -10 35 0 16 -4 32 -10 35 -5 3 -10 19 -10 36 0 16 -4 29 -10 29 -5 0
-10 18 -10 39 0 22 -4 43 -10 46 -5 3 -10 19 -10 35 0 41 -23 50 -128 50 -73
0 -91 -3 -96 -16z"/>
<path d="M3058 3355 c-3 -96 -5 -95 78 -95 l54 0 0 -360 0 -361 93 3 92 3 0
358 0 357 61 0 c33 0 65 5 72 12 9 9 12 -54 12 -284 0 -232 3 -304 14 -337 16
-44 76 -111 101 -111 8 0 15 -4 15 -10 0 -14 134 -13 182 2 34 10 70 37 104
80 13 16 14 21 14 54 0 14 4 23 10 19 7 -4 10 121 10 368 0 333 -2 376 -16
381 -28 11 -150 6 -162 -6 -9 -9 -12 -105 -12 -369 0 -352 0 -358 -20 -364
-49 -16 -50 -8 -50 369 0 260 -3 355 -12 364 -7 7 -44 12 -95 12 -58 0 -83 -4
-83 -12 0 -9 -3 -9 -12 0 -9 9 -74 12 -229 12 l-218 0 -3 -85z"/>
<path d="M4010 2990 l0 -450 95 0 95 0 0 170 c0 159 1 170 18 170 11 0 29 -8
40 -19 21 -17 22 -27 22 -160 0 -92 4 -140 10 -136 6 3 10 -1 10 -10 0 -13 13
-15 86 -13 l87 3 -2 160 c-1 88 -6 164 -12 170 -5 5 -9 17 -9 27 0 10 -5 18
-11 18 -5 0 -8 4 -5 9 3 5 -1 14 -9 21 -21 17 -19 43 5 60 12 8 20 26 20 42 0
15 5 28 10 28 14 0 13 166 -2 209 -21 60 -43 95 -66 106 -12 5 -22 13 -22 17
0 5 -9 8 -19 8 -11 0 -23 5 -26 10 -4 6 -68 10 -161 10 l-154 0 0 -450z m254
264 c13 -5 16 -23 16 -94 0 -94 -3 -100 -56 -100 -24 0 -24 1 -24 100 0 99 0
100 24 100 13 0 31 -3 40 -6z"/>
<path d="M4506 3424 c-7 -17 -8 -878 -2 -885 2 -2 97 -3 210 -1 l206 3 0 68
c0 97 -10 104 -139 99 l-101 -3 0 97 0 97 93 3 92 3 3 82 3 82 -36 7 c-19 3
-63 5 -98 2 l-62 -4 3 96 3 95 96 -3 c146 -5 143 -7 143 87 0 63 -3 80 -16 85
-9 3 -100 6 -204 6 -162 0 -189 -2 -194 -16z"/>
</g>
</svg>
